<?xml version="1.0" encoding="UTF-8" standalone="no"?>
<!-- Generator: Adobe Illustrator 27.5.0, SVG Export Plug-In . SVG Version: 6.00 Build 0)  -->

<svg
   version="1.1"
   x="0px"
   y="0px"
   viewBox="0 0 2200 2200"
   style="enable-background:new 0 0 2200 2200;"
   xml:space="preserve"
   id="svg16"
   sodipodi:docname="177833792_a02adc23-f634-48e1-aad9-11419fdea7e0.svg"
   inkscape:version="1.4.3 (0d15f75, 2025-12-25)"
   xmlns:inkscape="http://www.inkscape.org/namespaces/inkscape"
   xmlns:sodipodi="http://sodipodi.sourceforge.net/DTD/sodipodi-0.dtd"
   xmlns="http://www.w3.org/2000/svg"
   xmlns:svg="http://www.w3.org/2000/svg"><defs
   id="defs16">
	

		
		
	
			
			
			
			
			
			
			
			
			
			
			
			
			
			
			
			
		</defs><sodipodi:namedview
   id="namedview16"
   pagecolor="#ffffff"
   bordercolor="#000000"
   borderopacity="0.25"
   inkscape:showpageshadow="2"
   inkscape:pageopacity="0.0"
   inkscape:pagecheckerboard="0"
   inkscape:deskcolor="#d1d1d1"
   inkscape:zoom="0.36954545"
   inkscape:cx="1100"
   inkscape:cy="1100"
   inkscape:window-width="1920"
   inkscape:window-height="1094"
   inkscape:window-x="-11"
   inkscape:window-y="-11"
   inkscape:window-maximized="1"
   inkscape:current-layer="svg16" />

<path
   style="fill:#f4cc21"
   d="m 868.191,1514.663 c -15.317,88.944 -78.125,161.689 -162.729,188.469 -85.136,26.952 -189.921,10.715 -271.518,38.782 28.074,-81.589 11.837,-186.374 38.789,-271.51 26.78,-84.605 99.525,-147.413 188.462,-162.737 l 29.278,-21.872 203.675,203.675 z"
   id="path1" /><path
   style="fill:#2c3235"
   d="m 950.342,1494.512 -57.516,27.361 c -7.138,3.391 -15.106,2.319 -20.145,-2.721 l -77.213,-77.213 -61.842,-61.842 -76.913,-76.913 c -5.039,-5.039 -6.111,-13.007 -2.721,-20.145 l 27.361,-57.516 25.553,-25.553 268.989,268.989 z"
   id="path3" /><path
   style="fill:#d32932;fill-opacity:1"
   d="M 848.85,1011.289 C 746.712,909.151 565.69,918.242 331.868,1152.064 l -0.037,-0.037 c -11.583,11.583 -11.583,30.362 0,41.944 v 0 c 6.163,6.163 18.241,9.448 31.706,5.366 243.052,-73.671 329.823,-24.68 329.823,-24.68 l 159.429,-159.429 z"
   id="path5" /><path
   style="fill:#d32932"
   d="m 1164.577,1327.015 c 102.138,102.138 93.047,283.161 -140.775,516.982 l 0.037,0.037 c -11.583,11.583 -30.362,11.583 -41.944,0 v 0 c -6.163,-6.163 -9.448,-18.241 -5.366,-31.706 73.671,-243.052 24.68,-329.823 24.68,-329.823 l 159.429,-159.429 z"
   id="path6" /><path
   style="fill:#dde7ed"
   d="m 1860.999,591.315 c -28.994,162.808 -106.469,372.397 -299.32,565.248 -166.494,166.494 -433.008,303.242 -592.95,344.201 -6.059,1.548 -12.039,0.082 -16.025,-3.904 L 679.006,1223.162 c -3.986,-3.986 -5.452,-9.966 -3.904,-16.025 40.959,-159.942 177.707,-426.456 344.201,-592.95 192.851,-192.851 402.44,-270.326 565.248,-299.32 0,0 59.778,-4.556 170.391,106.057 111.447,111.447 106.057,170.391 106.057,170.391 z"
   id="path7" /><circle
   style="fill:#ffffff;stroke-width:1.42194"
   cx="1346.4701"
   cy="824.68896"
   r="360.20807"
   id="circle10" /><path
   style="fill:#6eb5e5;stroke-width:1.42194"
   d="m 1548.6568,1026.8773 c -111.6755,111.6756 -292.7237,111.6756 -404.3994,0 -22.4411,-22.4412 -40.3847,-47.71349 -53.8037,-74.62813 -9.1985,-18.44836 -16.2741,-37.70581 -21.2026,-57.3927 -6.1911,-24.4888 -9.0976,-49.63454 -8.6682,-74.72909 0.7579,-50.08815 14.6575,-99.9758 41.6219,-144.12446 11.5747,-19.05554 25.6249,-37.04888 42.0769,-53.50083 111.6755,-111.67559 292.7237,-111.67559 404.3737,-0.0255 16.4775,16.47754 30.5279,34.47088 42.1025,53.52499 26.9659,44.15008 40.8398,94.06192 41.6234,144.12446 0.3782,25.09456 -2.4771,50.2403 -8.6682,74.7291 -4.9528,19.66129 -12.0553,38.89315 -21.2283,57.3671 -13.4431,26.94166 -31.3612,52.18836 -53.828,74.65516 z"
   id="path12" /><path
   style="fill:#d32932"
   d="m 1860.999,591.315 c 0,0 -22.491,-47.644 -125.655,-150.808 -103.148,-103.148 -150.792,-125.64 -150.792,-125.64 111.809,-19.922 201.572,-16.996 248.739,-12.874 22.226,1.966 38.617,18.356 40.567,40.567 4.121,47.167 7.063,136.946 -12.859,248.755 z"
   id="path14" />
<path
   id="rect2"
   style="fill:#3b7978;fill-opacity:1;stroke:#3b7978;stroke-width:9.71908;stroke-linejoin:round;stroke-opacity:1"
   d="m 1347.6861,667.1813 152.4903,156.6825 c 25.2749,25.9698 24.7155,67.22462 -1.2544,92.49958 -25.9698,25.27497 -67.2246,24.71558 -92.4995,-1.25423 L 1253.9322,758.42666 c -25.2749,-25.96981 -24.7156,-67.22473 1.2542,-92.4997 25.9698,-25.27496 67.2248,-24.71546 92.4997,1.25434 z" /><path
   id="rect1"
   style="fill:none;stroke:#ffffff;stroke-width:11.8986;stroke-linejoin:round;stroke-dasharray:none;stroke-opacity:1"
   d="m 1358.407,669.43084 140.5077,144.37057 c 37.0857,38.10522 36.2649,98.63811 -1.8405,135.72389 l -35.9981,35.03498 c -38.1053,37.08572 -98.6383,36.26502 -135.7239,-1.84023 L 1184.8445,838.34948 c -37.0858,-38.10536 -36.265,-98.63827 1.8403,-135.72403 l 35.9982,-35.03498 c 38.1053,-37.08578 98.6382,-36.26498 135.724,1.84037 z" /><path
   id="path2-3"
   style="fill:#ffffff;fill-opacity:1;stroke:#ffffff;stroke-width:11.8986;stroke-linejoin:round;stroke-dasharray:none;stroke-opacity:1"
   d="m 1338.1143,724.92836 a 45.975904,43.93496 45.77686 0 0 -61.5665,-4.12774 57.390944,43.509886 45.77686 0 1 44.1193,20.76629 57.390944,43.509886 45.77686 0 1 19.5338,45.39606 45.975904,43.93496 45.77686 0 0 -2.0866,-62.03461 z" /><path
   id="path2-3-1"
   style="fill:#ffffff;fill-opacity:1;stroke:#ffffff;stroke-width:11.8986;stroke-linejoin:round;stroke-dasharray:none;stroke-opacity:1"
   d="m 1432.819,823.1553 a 45.975904,43.93496 45.77686 0 0 -61.5663,-4.1276 57.390944,43.509886 45.77686 0 1 44.1193,20.76629 57.390944,43.509886 45.77686 0 1 19.5336,45.39592 45.975904,43.93496 45.77686 0 0 -2.0866,-62.03461 z" /><path
   id="path2-3-1-3"
   style="fill:#ffffff;fill-opacity:1;stroke:#ffffff;stroke-width:11.8986;stroke-linejoin:round;stroke-dasharray:none;stroke-opacity:1"
   d="m 1270.1573,883.87974 a 45.975904,43.93496 44.777465 0 0 61.6291,3.05327 57.390944,43.509886 44.777465 0 1 -44.4748,-19.9936 57.390944,43.509886 44.777465 0 1 -20.3225,-45.04837 45.975904,43.93496 44.777465 0 0 3.1682,61.9887 z" /><path
   style="fill:#3b7978;stroke:#ffffff;stroke-width:11.8986;stroke-linejoin:round;stroke-dasharray:none;stroke-opacity:1"
   id="path1-0"
   sodipodi:type="arc"
   sodipodi:cx="371.97925"
   sodipodi:cy="1748.9613"
   sodipodi:rx="35.992069"
   sodipodi:ry="34.671715"
   sodipodi:start="0"
   sodipodi:end="3.1368069"
   sodipodi:arc-type="slice"
   d="m 407.97132,1748.9613 a 35.992069,34.671715 0 0 1 -35.90595,34.6716 35.992069,34.671715 0 0 1 -36.07778,-34.5057 l 35.99166,-0.1659 z"
   transform="matrix(0.71253238,-0.70163923,0.70196327,0.71221315,0,0)" /><path
   style="fill:#3b7978;stroke:#ffffff;stroke-width:11.8986;stroke-linejoin:round;stroke-dasharray:none;stroke-opacity:1"
   id="path1-9"
   sodipodi:type="arc"
   sodipodi:cx="390.79236"
   sodipodi:cy="-1307.5035"
   sodipodi:rx="35.992069"
   sodipodi:ry="34.671715"
   sodipodi:start="0"
   sodipodi:end="3.1368069"
   sodipodi:arc-type="slice"
   d="m 426.78443,-1307.5035 a 35.992069,34.671715 0 0 1 -35.90595,34.6716 35.992069,34.671715 0 0 1 -36.07778,-34.5057 l 35.99166,-0.1659 z"
   transform="matrix(0.72070101,-0.69324603,-0.69291812,-0.72101628,0,0)" /><path
   style="fill:none;stroke:#ffffff;stroke-width:14.8904;stroke-linejoin:round;stroke-dasharray:none;stroke-opacity:1"
   id="path2"
   sodipodi:type="arc"
   sodipodi:cx="-1452.7994"
   sodipodi:cy="689.43671"
   sodipodi:rx="34.40852"
   sodipodi:ry="44.48671"
   sodipodi:start="5.2476984"
   sodipodi:end="2.2815078"
   sodipodi:arc-type="arc"
   d="m -1435.2474,651.17321 a 34.40852,44.48671 0 0 1 16.7718,41.38292 34.40852,44.48671 0 0 1 -21.0846,37.94245 34.40852,44.48671 0 0 1 -35.6864,-7.34549"
   transform="matrix(-0.62583061,-0.77995901,0.82061937,-0.57147515,0,0)"
   sodipodi:open="true" /><circle
   style="fill:#ffffff;fill-opacity:1;stroke:#ffffff;stroke-width:11.8986;stroke-linejoin:round;stroke-dasharray:none;stroke-opacity:1"
   id="path3-9"
   cx="1600.8495"
   cy="-554.77557"
   r="21.638136"
   transform="rotate(45.77686)" /></svg>
