<?xml version="1.0" encoding="UTF-8" standalone="no"?>
<!-- Created with Inkscape (http://www.inkscape.org/) -->

<svg
   width="500"
   height="500"
   version="1.1"
   viewBox="0 0 132.29 132.29"
   xml:space="preserve"
   id="svg10"
   sodipodi:docname="mytra.svg"
   inkscape:version="1.4.3 (0d15f75042, 2025-12-25)"
   inkscape:export-filename="icon.png"
   inkscape:export-xdpi="96"
   inkscape:export-ydpi="96"
   xmlns:inkscape="http://www.inkscape.org/namespaces/inkscape"
   xmlns:sodipodi="http://sodipodi.sourceforge.net/DTD/sodipodi-0.dtd"
   xmlns="http://www.w3.org/2000/svg"
   xmlns:svg="http://www.w3.org/2000/svg"><defs
     id="defs10" /><sodipodi:namedview
     id="namedview10"
     pagecolor="#505050"
     bordercolor="#eeeeee"
     borderopacity="1"
     inkscape:showpageshadow="0"
     inkscape:pageopacity="0"
     inkscape:pagecheckerboard="0"
     inkscape:deskcolor="#505050"
     inkscape:zoom="1.212"
     inkscape:cx="250"
     inkscape:cy="250"
     inkscape:window-width="1536"
     inkscape:window-height="808"
     inkscape:window-x="0"
     inkscape:window-y="0"
     inkscape:window-maximized="1"
     inkscape:current-layer="g9" /><g
     stroke-linejoin="round"
     id="g10"
     transform="matrix(0.81351241,0,0,0.81351241,12.3462,11.800072)"><g
       stroke="#303030"
       id="g9"><g
         id="g1"><path
           d="m 110,66.236 c 0,24.19 -19.609,43.799 -43.799,43.799 -7.6994,0 -14.934,-1.9863 -21.221,-5.4749 -3.2374,-1.7963 -19.91,8.0016 -22.578,5.4749 -3.0606,-2.8984 7.9842,-18.227 5.8596,-21.9 -3.7267,-6.4423 -5.8595,-13.922 -5.8595,-21.9 0,-24.19 19.61,-43.799 43.799,-43.799 24.19,0 43.799,19.61 43.799,43.799 z"
           fill="#ffffff"
           stroke="#3b7978"
           stroke-width="2.1167"
           id="path1"
           style="stroke-width:2.60185336;stroke-dasharray:none" /><path
           d="M 51.084,54.4 H 80.84 c 4.932,0 8.9025,3.9705 8.9025,8.9025 0,4.932 -3.9705,8.9025 -8.9025,8.9025 H 51.084 c -4.932,0 -8.9025,-3.9705 -8.9025,-8.9025 0,-4.932 3.9705,-8.9025 8.9025,-8.9025 z"
           fill="#3b7978"
           stroke="#3b7978"
           stroke-width="1.3227"
           id="path2" /><path
           d="m 52.321,53.568 h 27.418 c 7.2366,0 13.063,5.8259 13.063,13.063 v 6.8365 c 0,7.2366 -5.8259,13.063 -13.063,13.063 H 52.321 c -7.2366,0 -13.063,-5.8259 -13.063,-13.063 V 66.631 c 0,-7.2366 5.8259,-13.063 13.063,-13.063 z"
           fill="none"
           stroke="#303030"
           stroke-width="1.6194"
           id="path3"
           style="stroke-width:1.95139002;stroke-dasharray:none" /><g
           fill="#303030"
           stroke="#303030"
           stroke-width="1.6194"
           id="g6"><path
             d="m 55.808,60.815 a 6.2571,5.9794 1.2494e-8 0 0 -6.2465,5.6128 7.8107,5.9215 1.4807e-7 0 1 6.2132,-2.3318 7.8107,5.9215 1.4807e-7 0 1 6.2816,2.4039 6.2571,5.9794 1.2494e-8 0 0 -6.2483,-5.6849 z"
             id="path4" /><path
             d="m 74.377,60.902 a 6.2571,5.9794 1.2494e-8 0 0 -6.2465,5.6128 7.8107,5.9215 1.4807e-7 0 1 6.2132,-2.3318 7.8107,5.9215 1.4807e-7 0 1 6.2816,2.4039 6.2571,5.9794 1.2494e-8 0 0 -6.2483,-5.6849 z"
             id="path5" /><path
             d="m 64.86,82.53 a 5.9794,6.2571 89.001 0 0 6.1477,-5.7209 5.9215,7.8107 89.001 0 1 -6.1716,2.4398 5.9215,7.8107 89.001 0 1 -6.3226,-2.294 5.9794,6.2571 89.001 0 0 6.3465,5.575 z"
             id="path6" /></g><path
           transform="matrix(-0.005856,-0.99998,0.99998,-0.0063109,0,0)"
           d="m -66.09,95.402 a 4.8984,4.7187 0 0 1 -4.8867,4.7187 4.8984,4.7187 0 0 1 -4.91,-4.6961 l 4.8983,-0.02258 z"
           fill="#3b7978"
           stroke-width="1.6194"
           id="path7"
           style="stroke-width:1.95139299;stroke-dasharray:none" /><path
           transform="matrix(0.005856,-0.99998,-0.99998,-0.0063109,0,0)"
           d="m -65.32,-36.756 a 4.8984,4.7187 0 0 1 -4.8867,4.7187 4.8984,4.7187 0 0 1 -4.91,-4.6961 l 4.8983,-0.02258 z"
           fill="#3b7978"
           stroke-width="1.6194"
           id="path8"
           style="stroke-width:1.95139299;stroke-dasharray:none" /><path
           transform="matrix(-0.99543,-0.095498,0.16281,-0.98666,0,0)"
           d="m -74.984,-47.194 a 4.6829,6.0545 0 0 1 2.2826,5.6321 4.6829,6.0545 0 0 1 -2.8695,5.1638 4.6829,6.0545 0 0 1 -4.8568,-0.99969"
           fill="none"
           stroke-width="2.0265"
           id="path9"
           style="stroke-width:2.44204873;stroke-dasharray:none" /><circle
           cx="75.959"
           cy="47.007999"
           r="2.9449"
           fill="#3b7978"
           stroke-width="1.6194"
           id="circle9"
           style="stroke-width:1.95139002;stroke-dasharray:none" /></g></g></g></svg>
