<?xml version="1.0" encoding="UTF-8"?>
<!-- Created with Inkscape (http://www.inkscape.org/) -->
<svg width="500" height="500" version="1.1" viewBox="0 0 132.29 132.29" xml:space="preserve" xmlns="http://www.w3.org/2000/svg"><g stroke-linejoin="round"><path d="m110 66.236c0 24.19-19.609 43.799-43.799 43.799-7.6994 0-14.934-1.9863-21.221-5.4749-3.2374-1.7963-19.91 8.0016-22.578 5.4749-3.0606-2.8984 7.9842-18.227 5.8596-21.9-3.7267-6.4423-5.8595-13.922-5.8595-21.9 0-24.19 19.61-43.799 43.799-43.799 24.19 0 43.799 19.61 43.799 43.799z" fill="#fff" stroke="#3b7978" stroke-width="2.1167"/><path d="m51.084 54.4h29.756c4.932 0 8.9025 3.9705 8.9025 8.9025s-3.9705 8.9025-8.9025 8.9025h-29.756c-4.932 0-8.9025-3.9705-8.9025-8.9025s3.9705-8.9025 8.9025-8.9025z" fill="#3b7978" stroke="#3b7978" stroke-width="1.3227"/><path d="m52.321 53.568h27.418c7.2366 0 13.063 5.8259 13.063 13.063v6.8365c0 7.2366-5.8259 13.063-13.063 13.063h-27.418c-7.2366 0-13.063-5.8259-13.063-13.063v-6.8365c0-7.2366 5.8259-13.063 13.063-13.063z" fill="none" stroke="#303030" stroke-width="1.6194"/><g fill="#303030" stroke="#303030" stroke-width="1.6194"><path d="m55.808 60.815a6.2571 5.9794 1.2494e-8 0 0-6.2465 5.6128 7.8107 5.9215 1.4807e-7 0 1 6.2132-2.3318 7.8107 5.9215 1.4807e-7 0 1 6.2816 2.4039 6.2571 5.9794 1.2494e-8 0 0-6.2483-5.6849z"/><path d="m74.377 60.902a6.2571 5.9794 1.2494e-8 0 0-6.2465 5.6128 7.8107 5.9215 1.4807e-7 0 1 6.2132-2.3318 7.8107 5.9215 1.4807e-7 0 1 6.2816 2.4039 6.2571 5.9794 1.2494e-8 0 0-6.2483-5.6849z"/><path d="m64.86 82.53a5.9794 6.2571 89.001 0 0 6.1477-5.7209 5.9215 7.8107 89.001 0 1-6.1716 2.4398 5.9215 7.8107 89.001 0 1-6.3226-2.294 5.9794 6.2571 89.001 0 0 6.3465 5.575z"/></g><g stroke="#303030"><path transform="matrix(-.005856 -.99998 .99998 -.0063109 0 0)" d="m-66.09 95.402a4.8984 4.7187 0 0 1-4.8867 4.7187 4.8984 4.7187 0 0 1-4.91-4.6961l4.8983-0.02258z" fill="#3b7978" stroke-width="1.6194"/><path transform="matrix(.005856 -.99998 -.99998 -.0063109 0 0)" d="m-65.32-36.756a4.8984 4.7187 0 0 1-4.8867 4.7187 4.8984 4.7187 0 0 1-4.91-4.6961l4.8983-0.02258z" fill="#3b7978" stroke-width="1.6194"/><path transform="matrix(-.99543 -.095498 .16281 -.98666 0 0)" d="m-74.984-47.194a4.6829 6.0545 0 0 1 2.2826 5.6321 4.6829 6.0545 0 0 1-2.8695 5.1638 4.6829 6.0545 0 0 1-4.8568-0.99969" fill="none" stroke-width="2.0265"/><circle cx="75.959" cy="47.008" r="2.9449" fill="#3b7978" stroke-width="1.6194"/></g></g></svg>
